<svg height="512pt" viewBox="0 -98 512 512" width="512pt" xmlns="http://www.w3.org/2000/svg"><path d="m154.761719 315.839844h-63.828125c-13.292969 0-24.070313-10.777344-24.070313-24.070313v-33.183593c0-13.296876 10.777344-24.070313 24.070313-24.070313h63.828125c13.292969 0 24.066406 10.773437 24.066406 24.070313v33.183593c0 13.292969-10.773437 24.070313-24.066406 24.070313zm0 0" fill="#ffc5b2"/><path d="m421.066406 315.839844h-63.828125c-13.292969 0-24.066406-10.777344-24.066406-24.070313v-33.183593c0-13.296876 10.773437-24.070313 24.066406-24.070313h63.828125c13.292969 0 24.070313 10.773437 24.070313 24.070313v33.183593c0 13.292969-10.777344 24.070313-24.070313 24.070313zm0 0" fill="#bc663b"/><path d="m154.144531 234.515625h-23.835937c13.632812 0 24.683594 11.050781 24.683594 24.679687v31.960938c0 13.632812-11.050782 24.683594-24.683594 24.683594h23.835937c13.632813 0 24.683594-11.050782 24.683594-24.683594v-31.960938c0-13.628906-11.050781-24.679687-24.683594-24.679687zm0 0" fill="#ffae92"/><path d="m420.449219 234.515625h-23.835938c13.632813 0 24.683594 11.050781 24.683594 24.679687v31.960938c0 13.632812-11.050781 24.683594-24.683594 24.683594h23.835938c13.632812 0 24.683593-11.050782 24.683593-24.683594v-31.960938c.003907-13.628906-11.046874-24.679687-24.683593-24.679687zm0 0" fill="#ad5731"/><path d="m163.828125 40.984375c0 22.632813-18.347656 40.980469-40.980469 40.980469-22.632812 0-40.984375-18.347656-40.984375-40.980469 0-22.636719 18.351563-40.984375 40.984375-40.984375 22.632813 0 40.980469 18.347656 40.980469 40.984375zm0 0" fill="#d2d2dd"/><path d="m122.847656 0c-4.796875 0-9.398437.832031-13.675781 2.347656 15.90625 5.628906 27.308594 20.796875 27.308594 38.632813 0 17.839843-11.402344 33.007812-27.308594 38.636719 4.277344 1.515624 8.878906 2.347656 13.675781 2.347656 22.632813 0 40.980469-18.351563 40.980469-40.984375 0-22.632813-18.347656-40.980469-40.980469-40.980469zm0 0" fill="#bcbcc4"/><path d="m17.6875 203.101562v-59.546874c0-55.847657 45.273438-101.121094 101.121094-101.121094h8.074218c55.851563 0 101.125 45.273437 101.125 101.121094v59.546874zm0 0" fill="#bcbcc4"/><path d="m126.882812 42.433594h-8.074218c-5.28125 0-10.46875.40625-15.535156 1.1875 48.472656 7.472656 85.585937 49.371094 85.585937 99.9375v59.546875h39.148437v-59.546875c0-55.851563-45.273437-101.125-101.125-101.125zm0 0" fill="#a6a6a6"/><path d="m227.089844 175.0625h-12.667969v-12.472656c0-39.164063-31.75-70.914063-70.914063-70.914063h-41.320312c-39.167969 0-70.917969 31.75-70.917969 70.914063v12.472656h-12.664062c-10.277344 0-18.605469 8.328125-18.605469 18.605469v9.316406c0 13.085937 10.605469 23.691406 23.691406 23.691406 2.304688.125 5.4375.253907 7.675782-.371093 1.929687 37.441406 32.898437 67.210937 70.820312 67.210937h41.320312c37.921876 0 68.890626-29.769531 70.820313-67.210937 2.238281.625 5.367187.496093 7.675781.371093 13.085938 0 23.691406-10.605469 23.691406-23.691406v-9.316406c0-10.277344-8.332031-18.605469-18.605468-18.605469zm0 0" fill="#ffc5b2"/><path d="m283.992188 192.59375v-55.507812c0-45.148438 36.597656-81.75 81.746093-81.75h46.824219c45.152344 0 81.75 36.601562 81.75 81.75v55.507812zm0 0" fill="#bcbcc4"/><path d="m412.566406 55.335938h-39.152344c45.152344 0 81.75 36.601562 81.75 81.75v55.507812h39.148438v-55.507812c0-45.148438-36.597656-81.75-81.746094-81.75zm0 0" fill="#a6a6a6"/><path d="m122.847656 262.171875c-11.230468 0-21.207031-6.648437-24.269531-16.164063-1.300781-4.042968.925781-8.375 4.96875-9.679687 4.039063-1.296875 8.375.925781 9.675781 4.96875.875 2.730469 4.464844 5.492187 9.625 5.492187 5.15625 0 8.746094-2.761718 9.621094-5.492187 1.300781-4.042969 5.628906-6.265625 9.675781-4.96875 4.042969 1.300781 6.269531 5.636719 4.96875 9.679687-3.058593 9.515626-13.039062 16.164063-24.265625 16.164063zm0 0" fill="#ff88b9"/><path d="m493.394531 175.0625h-12.664062v-12.472656c0-39.164063-31.75-70.914063-70.917969-70.914063h-41.320312c-39.164063 0-70.917969 31.75-70.917969 70.914063v12.472656h-12.664063c-10.273437 0-18.605468 8.328125-18.605468 18.605469v9.316406c0 13.085937 10.605468 23.691406 23.691406 23.691406 2.304687.125 5.4375.253907 7.675781-.371093 1.929687 37.441406 32.898437 67.210937 70.820313 67.210937h41.320312c37.921875 0 68.890625-29.769531 70.820312-67.210937 2.238282.625 5.371094.496093 7.675782.371093 13.085937 0 23.691406-10.605469 23.691406-23.691406v-9.316406c0-10.277344-8.328125-18.605469-18.605469-18.605469zm0 0" fill="#bc663b"/><path d="m445.832031 190.695312c0 7.238282-5.867187 13.109376-13.109375 13.109376-7.238281 0-13.109375-5.871094-13.109375-13.109376 0-7.242187 5.871094-13.109374 13.109375-13.109374 7.242188 0 13.109375 5.867187 13.109375 13.109374zm0 0" fill="#703e23"/><path d="m358.691406 190.695312c0 7.238282-5.867187 13.109376-13.109375 13.109376-7.238281 0-13.109375-5.871094-13.109375-13.109376 0-7.242187 5.871094-13.109374 13.109375-13.109374 7.242188 0 13.109375 5.867187 13.109375 13.109374zm0 0" fill="#703e23"/><path d="m351.367188 170.960938h-17.964844c-6.53125 0-11.828125-5.296876-11.828125-11.828126v-.710937c0-6.535156 5.296875-11.832031 11.828125-11.832031h17.964844c6.53125 0 11.828124 5.296875 11.828124 11.832031v.710937c0 6.53125-5.296874 11.828126-11.828124 11.828126zm0 0" fill="#e8e8ed"/><path d="m351.011719 146.589844h-13.484375c6.730468 0 12.183594 5.457031 12.183594 12.183594 0 6.730468-5.453126 12.1875-12.183594 12.1875h13.484375c6.726562 0 12.183593-5.457032 12.183593-12.1875 0-6.726563-5.457031-12.183594-12.183593-12.183594zm0 0" fill="#d2d2dd"/><path d="m227.089844 175.0625h-12.667969v-12.785156c0-38.992188-31.609375-70.601563-70.605469-70.601563h-29.585937c38.996093 0 70.605469 31.609375 70.605469 70.601563v60.632812c0 38.992188-31.609376 70.605469-70.605469 70.605469h29.585937c37.855469 0 68.75-29.792969 70.519532-67.210937 2.238281.625 5.363281.492187 7.667968.371093 13.082032 0 23.691406-10.609375 23.691406-23.691406v-9.316406c0-10.277344-8.332031-18.605469-18.605468-18.605469zm0 0" fill="#ffae92"/><path d="m166.417969 155.492188c-17.90625 0-32.894531 12.699218-36.449219 29.5625h-14.242188c-3.550781-16.863282-18.542968-29.5625-36.449218-29.5625-20.539063 0-37.25 16.710937-37.25 37.253906 0 20.539062 16.710937 37.25 37.25 37.25 17.90625 0 32.898437-12.695313 36.449218-29.558594h14.242188c3.554688 16.863281 18.542969 29.558594 36.449219 29.558594 20.539062 0 37.25-16.710938 37.25-37.25 0-20.542969-16.710938-37.253906-37.25-37.253906zm-87.140625 59.121093c-12.058594 0-21.871094-9.808593-21.871094-21.867187s9.8125-21.871094 21.871094-21.871094 21.871094 9.8125 21.871094 21.871094-9.8125 21.867187-21.871094 21.867187zm87.140625 0c-12.058594 0-21.871094-9.808593-21.871094-21.867187s9.8125-21.871094 21.871094-21.871094c12.058593 0 21.867187 9.8125 21.867187 21.871094s-9.808594 21.867187-21.867187 21.867187zm0 0" fill="#5c5c5c"/><path d="m176.503906 192.746094c0 5.570312-4.515625 10.085937-10.085937 10.085937-5.570313 0-10.085938-4.515625-10.085938-10.085937 0-5.570313 4.515625-10.085938 10.085938-10.085938 5.570312 0 10.085937 4.515625 10.085937 10.085938zm0 0" fill="#257edf"/><path d="m89.363281 192.746094c0 5.570312-4.515625 10.085937-10.085937 10.085937-5.570313 0-10.085938-4.515625-10.085938-10.085937 0-5.570313 4.515625-10.085938 10.085938-10.085938 5.570312 0 10.085937 4.515625 10.085937 10.085938zm0 0" fill="#257edf"/><path d="m493.394531 175.0625h-12.664062v-12.785156c0-38.992188-31.613281-70.601563-70.605469-70.601563h-29.585938c38.992188 0 70.605469 31.609375 70.605469 70.601563v60.632812c0 38.992188-31.613281 70.605469-70.605469 70.605469h29.585938c37.855469 0 68.746094-29.792969 70.519531-67.210937 2.238281.625 5.359375.492187 7.664063.371093 13.085937 0 23.691406-10.609375 23.691406-23.691406v-9.316406c0-10.277344-8.328125-18.605469-18.605469-18.605469zm0 0" fill="#ad5731"/><path d="m409.511719 229.058594c5.28125 0 8.089843 7.644531 4.359375 12.109375-5.890625 7.050781-14.773438 11.542969-24.71875 11.542969-9.941406 0-18.828125-4.492188-24.71875-11.542969-3.730469-4.464844-.921875-12.109375 4.359375-12.109375zm0 0" fill="#dd5298"/><path d="m409.511719 229.058594h-26.851563v.378906c0 8.789062 3.753906 17.246094 10.503906 22.875.050782.042969.101563.082031.148438.121094 8.242188-1.058594 15.503906-5.214844 20.558594-11.265625 3.730468-4.464844.921875-12.109375-4.359375-12.109375zm0 0" fill="#c93f84"/><path d="m414.257812 214.210938h-50.207031c-19.839843 0-35.921875 16.078124-35.921875 35.917968 0 3.355469 2.722656 6.074219 6.074219 6.074219h22.890625c15.046875 0 27.777344-9.886719 32.058594-23.515625 4.285156 13.628906 17.015625 23.515625 32.0625 23.515625h22.886718c3.355469 0 6.078126-2.71875 6.078126-6.074219-.003907-19.839844-16.085938-35.917968-35.921876-35.917968zm0 0" fill="#e8e8ed"/><path d="m414.257812 214.210938h-22.667968c19.835937 0 35.917968 16.078124 35.917968 35.917968 0 3.355469-2.71875 6.074219-6.074218 6.074219h22.667968c3.355469 0 6.074219-2.71875 6.074219-6.074219 0-19.839844-16.082031-35.917968-35.917969-35.917968zm0 0" fill="#d2d2dd"/><path d="m447.488281 170.960938h-17.964843c-6.53125 0-11.828126-5.296876-11.828126-11.828126v-.710937c0-6.535156 5.296876-11.832031 11.828126-11.832031h17.964843c6.53125 0 11.828125 5.296875 11.828125 11.832031v.710937c0 6.53125-5.296875 11.828126-11.828125 11.828126zm0 0" fill="#e8e8ed"/><path d="m447.132812 146.589844h-13.484374c6.730468 0 12.183593 5.457031 12.183593 12.183594 0 6.730468-5.453125 12.1875-12.183593 12.1875h13.484374c6.726563 0 12.183594-5.457032 12.183594-12.1875 0-6.726563-5.457031-12.183594-12.183594-12.183594zm0 0" fill="#d2d2dd"/></svg>