<svg height="512" viewBox="0 0 512 512" width="512" xmlns="http://www.w3.org/2000/svg"><g id="Flat"><path d="m323.81 259.96-67.81 108.04-67.04-108.19 19.04-3.81v-72h96v72z" fill="#fec9a3"/><path d="m304 184v51.57a67.642 67.642 0 0 1 -9.06 7.86 66.6 66.6 0 0 1 -86.94-7.86v-51.57z" fill="#feb784"/><path d="m424 325.91v162.09h-336v-162.09a55.986 55.986 0 0 1 45.02-54.91l74.98-15 48 64 48-64 74.98 14.99a56.029 56.029 0 0 1 45.02 54.92z" fill="#919c48"/><path d="m424 325.91v162.09h-336v-39.56c117.86-15.1 234.52-63.17 311.44-168.87a55.954 55.954 0 0 1 24.56 46.34z" fill="#8a9444"/><path d="m360 267.2v220.8h-208v-220.8l56-11.2 48 112 48-112z" fill="#92563a"/><path d="m360 325.6v162.4h-208v-51.24c76.59-18.4 149.61-53.1 208-111.16z" fill="#8c5338"/><path d="m304 344 18.037-84.621-18.037-3.382-48 64.003z" fill="#9aa955"/><path d="m208 344 48-24-48-64-18.036 3.382z" fill="#9aa955"/><path d="m320 112h8a24 24 0 0 1 24 24 24 24 0 0 1 -24 24h-8a0 0 0 0 1 0 0v-48a0 0 0 0 1 0 0z" fill="#feb784"/><path d="m191.52 112h-8a24.071 24.071 0 0 0 -24 24 24.071 24.071 0 0 0 24 24h8.48z" fill="#feb784"/><path d="m328 104v28.11a171.907 171.907 0 0 1 -8.82 54.35 66.6 66.6 0 0 1 -126.36 0 171.923 171.923 0 0 1 -8.82-54.35v-28.11a72 72 0 0 1 144 0z" fill="#fec9a3"/><path d="m328 104v28.11a171.907 171.907 0 0 1 -8.82 54.35 66.6 66.6 0 0 1 -94.68 37.62 86.778 86.778 0 0 0 51.77-79.42v-38.58a86.825 86.825 0 0 0 -38.1-71.85 72.018 72.018 0 0 1 89.83 69.77z" fill="#fec093"/><circle cx="220" cy="124" fill="#7a432a" r="12"/><circle cx="292" cy="124" fill="#7a432a" r="12"/><path d="m328 112v-28.8c0-23.859-17.909-43.2-40-43.2l1.408 4.561a175.238 175.238 0 0 0 38.592 67.439z" fill="#b0b0ae"/><path d="m304 200h-9.373a54.626 54.626 0 0 1 -38.627-16 54.626 54.626 0 0 1 -38.627 16h-9.373a40 40 0 0 1 40-40h16a40 40 0 0 1 40 40z" fill="#b0b0ae"/><path d="m184 112v-28.8c0-23.859 17.909-43.2 40-43.2l-1.408 4.561a175.238 175.238 0 0 1 -38.592 67.439z" fill="#b0b0ae"/><path d="m322.66 64-25.41-.01-17.25-.01h-.66l-15.34-.01h-16l-15.07-.01h-.93l-16.97-.01-25.59-.01a42.485 42.485 0 0 1 12.05-27.07c.43-.45.88-.89 1.34-1.32a42.622 42.622 0 0 1 29.17-11.55h48.07a42.684 42.684 0 0 1 42.58 39.84z" fill="#bfbfbd"/><g fill="#c7c7c5"><path d="m248 24v40h-16v-40z"/><path d="m232 64v-.04l-16.97-.01-13.54-27.08c.43-.45.88-.89 1.34-1.32a42.666 42.666 0 0 1 11.94-7.91l18.18 36.36z"/><path d="m264 24h16v40h-16z"/><path d="m310.82 37.09-13.57 26.9-17.25-.01v.02h-.67l.01-.02.66-1.31 17.61-34.9a42.335 42.335 0 0 1 13.21 9.32z"/></g></g></svg>